<svg width="40" height="39" viewBox="0 0 40 39" fill="none" xmlns="http://www.w3.org/2000/svg">
<path d="M20 0C8.97799 0 0 8.75354 0 19.5C0 30.2465 8.97799 39 20 39C31.022 39 40 30.2465 40 19.5C40 8.75354 31.022 0 20 0ZM20 3.9C28.8602 3.9 36 10.8613 36 19.5C36 27.3282 30.1306 33.7604 22.4375 34.902V24.1503H27.0938L27.8242 19.5381H22.4375V17.0168C22.4375 15.0999 23.078 13.3986 24.918 13.3986H27.8711V9.37295C27.3511 9.3047 26.2537 9.15586 24.1797 9.15586C19.8477 9.15586 17.3086 11.3867 17.3086 16.4684V19.5381H12.8555V24.1503H17.3086V34.8639C9.74058 33.6196 4 27.242 4 19.5C4 10.8613 11.1398 3.9 20 3.9Z" fill="white"/>
</svg>
