<svg width="39" height="39" viewBox="0 0 39 39" fill="none" xmlns="http://www.w3.org/2000/svg">
<path d="M19.5 0C8.748 0 0 8.748 0 19.5C0 30.252 8.748 39 19.5 39C30.252 39 39 30.252 39 19.5C39 8.748 30.252 0 19.5 0ZM14.499 6H24.498C29.1855 6 33 9.81302 33 14.499V24.498C33 29.1855 29.187 33 24.501 33H14.502C9.81445 33 6 29.187 6 24.501V14.502C6 9.81445 9.81302 6 14.499 6ZM14.499 9C11.4675 9 9 11.469 9 14.502V24.501C9 27.5325 11.469 30 14.502 30H24.501C27.5325 30 30 27.531 30 24.498V14.499C30 11.4675 27.531 9 24.498 9H14.499ZM26.502 11.499C27.054 11.499 27.501 11.946 27.501 12.498C27.501 13.05 27.054 13.5 26.502 13.5C25.95 13.5 25.5 13.05 25.5 12.498C25.5 11.946 25.95 11.499 26.502 11.499ZM19.5 12C23.6355 12 27 15.3645 27 19.5C27 23.6355 23.6355 27 19.5 27C15.3645 27 12 23.6355 12 19.5C12 15.3645 15.3645 12 19.5 12ZM19.5 15C18.3065 15 17.1619 15.4741 16.318 16.318C15.4741 17.1619 15 18.3065 15 19.5C15 20.6935 15.4741 21.8381 16.318 22.682C17.1619 23.5259 18.3065 24 19.5 24C20.6935 24 21.8381 23.5259 22.682 22.682C23.5259 21.8381 24 20.6935 24 19.5C24 18.3065 23.5259 17.1619 22.682 16.318C21.8381 15.4741 20.6935 15 19.5 15Z" fill="white"/>
</svg>
