<svg width="40" height="39" viewBox="0 0 40 39" fill="none" xmlns="http://www.w3.org/2000/svg">
<path d="M6.66667 0C3.01118 0 0 2.9359 0 6.5V32.5C0 36.0641 3.01118 39 6.66667 39H33.3333C36.9888 39 40 36.0641 40 32.5V6.5C40 2.9359 36.9888 0 33.3333 0H6.66667ZM6.66667 4.33333H33.3333C34.589 4.33333 35.5556 5.27577 35.5556 6.5V32.5C35.5556 33.7242 34.589 34.6667 33.3333 34.6667H6.66667C5.41104 34.6667 4.44444 33.7242 4.44444 32.5V6.5C4.44444 5.27577 5.41104 4.33333 6.66667 4.33333ZM8.22483 8.66667L16.9835 20.8711L8.68056 30.3333H11.6406L18.3116 22.7161L23.7717 30.3333H32.3047L23.0035 17.3545L30.6076 8.66667H27.6953L21.6884 15.5137L16.7839 8.66667H8.22483ZM12.3698 10.8079H15.6727L28.1858 28.1921H24.8611L12.3698 10.8079Z" fill="white"/>
</svg>
